<mxfile host="app.diagrams.net" modified="2023-08-14T05:08:19.846Z" agent="Mozilla/5.0 (Windows NT 10.0; Win64; x64) AppleWebKit/537.36 (KHTML, like Gecko) Chrome/115.0.0.0 Safari/537.36" etag="jr4DKtiuUUpWsaHGOYHb" version="21.6.6" type="device">
  <diagram name="Page-1" id="9rFNfObl8hCfHHn8nTJZ">
    <mxGraphModel dx="1434" dy="782" grid="1" gridSize="10" guides="1" tooltips="1" connect="1" arrows="1" fold="1" page="1" pageScale="1" pageWidth="850" pageHeight="1100" math="0" shadow="0">
      <root>
        <mxCell id="0" />
        <mxCell id="1" parent="0" />
        <mxCell id="Up-l4wQZ1LtPDwq_aXLA-1" value="" style="sketch=0;outlineConnect=0;fontColor=#232F3E;gradientColor=none;fillColor=#232F3D;strokeColor=#000000;dashed=0;verticalLabelPosition=bottom;verticalAlign=top;align=center;html=1;fontSize=12;fontStyle=0;aspect=fixed;pointerEvents=1;shape=mxgraph.aws4.user;" vertex="1" parent="1">
          <mxGeometry x="90" y="380" width="30" height="30" as="geometry" />
        </mxCell>
        <mxCell id="Up-l4wQZ1LtPDwq_aXLA-2" value="&lt;br&gt;&lt;br&gt;internet" style="ellipse;shape=cloud;whiteSpace=wrap;html=1;verticalAlign=top;fillColor=#FFFFFF;strokeColor=#000000;fontColor=#232F3E;sketch=0;gradientColor=none;dashed=0;fontStyle=0;" vertex="1" parent="1">
          <mxGeometry x="390" y="120" width="120" height="80" as="geometry" />
        </mxCell>
        <mxCell id="Up-l4wQZ1LtPDwq_aXLA-3" value="customer" style="text;html=1;strokeColor=none;fillColor=none;align=center;verticalAlign=middle;whiteSpace=wrap;rounded=0;" vertex="1" parent="1">
          <mxGeometry x="75" y="430" width="60" height="30" as="geometry" />
        </mxCell>
        <mxCell id="Up-l4wQZ1LtPDwq_aXLA-4" value="" style="image;points=[];aspect=fixed;html=1;align=center;shadow=0;dashed=0;image=img/lib/allied_telesis/computer_and_terminals/Personal_Computer.svg;" vertex="1" parent="1">
          <mxGeometry x="160" y="240" width="45.6" height="61.800000000000004" as="geometry" />
        </mxCell>
        <mxCell id="Up-l4wQZ1LtPDwq_aXLA-5" value="" style="html=1;verticalAlign=bottom;endArrow=open;dashed=1;endSize=8;elbow=vertical;rounded=0;" edge="1" parent="1" source="Up-l4wQZ1LtPDwq_aXLA-1" target="Up-l4wQZ1LtPDwq_aXLA-4">
          <mxGeometry relative="1" as="geometry">
            <mxPoint x="220" y="228" as="sourcePoint" />
            <mxPoint x="140" y="228" as="targetPoint" />
          </mxGeometry>
        </mxCell>
        <mxCell id="Up-l4wQZ1LtPDwq_aXLA-6" value="" style="fontColor=#0066CC;verticalAlign=top;verticalLabelPosition=bottom;labelPosition=center;align=center;html=1;outlineConnect=0;fillColor=#CCCCCC;strokeColor=#6881B3;gradientColor=none;gradientDirection=north;strokeWidth=2;shape=mxgraph.networks.modem;" vertex="1" parent="1">
          <mxGeometry x="270" y="210" width="70" height="20" as="geometry" />
        </mxCell>
        <mxCell id="Up-l4wQZ1LtPDwq_aXLA-7" value="" style="html=1;verticalAlign=bottom;endArrow=open;dashed=1;endSize=8;elbow=vertical;rounded=0;" edge="1" parent="1" target="Up-l4wQZ1LtPDwq_aXLA-6">
          <mxGeometry relative="1" as="geometry">
            <mxPoint x="205.6" y="268" as="sourcePoint" />
            <mxPoint x="254.6" y="190" as="targetPoint" />
          </mxGeometry>
        </mxCell>
        <mxCell id="Up-l4wQZ1LtPDwq_aXLA-8" value="" style="html=1;verticalAlign=bottom;endArrow=open;dashed=1;endSize=8;elbow=vertical;rounded=0;" edge="1" parent="1" source="Up-l4wQZ1LtPDwq_aXLA-6">
          <mxGeometry relative="1" as="geometry">
            <mxPoint x="360" y="250" as="sourcePoint" />
            <mxPoint x="409" y="172" as="targetPoint" />
          </mxGeometry>
        </mxCell>
        <mxCell id="Up-l4wQZ1LtPDwq_aXLA-9" value="&lt;br&gt;&amp;lt;&amp;lt;Processor&amp;gt;&amp;gt;&lt;br&gt;catching server&lt;br&gt;" style="verticalAlign=top;align=left;spacingTop=8;spacingLeft=2;spacingRight=12;shape=cube;size=10;direction=south;fontStyle=4;html=1;whiteSpace=wrap;" vertex="1" parent="1">
          <mxGeometry x="425" y="270" width="180" height="120" as="geometry" />
        </mxCell>
        <mxCell id="Up-l4wQZ1LtPDwq_aXLA-10" value="" style="image;points=[];aspect=fixed;html=1;align=center;shadow=0;dashed=0;image=img/lib/allied_telesis/storage/Datacenter_Server_Half_Rack_ToR.svg;" vertex="1" parent="1">
          <mxGeometry x="310" y="450" width="88.2" height="114.6" as="geometry" />
        </mxCell>
        <mxCell id="Up-l4wQZ1LtPDwq_aXLA-11" value="" style="image;points=[];aspect=fixed;html=1;align=center;shadow=0;dashed=0;image=img/lib/allied_telesis/storage/Datacenter_Server_Half_Rack_ToR.svg;" vertex="1" parent="1">
          <mxGeometry x="580" y="460" width="88.2" height="114.6" as="geometry" />
        </mxCell>
        <mxCell id="Up-l4wQZ1LtPDwq_aXLA-12" value="" style="image;points=[];aspect=fixed;html=1;align=center;shadow=0;dashed=0;image=img/lib/allied_telesis/storage/Datacenter_Server_Half_Rack_ToR.svg;" vertex="1" parent="1">
          <mxGeometry x="460" y="450" width="88.2" height="114.6" as="geometry" />
        </mxCell>
        <mxCell id="Up-l4wQZ1LtPDwq_aXLA-13" value="" style="html=1;verticalAlign=bottom;endArrow=open;dashed=1;endSize=8;elbow=vertical;rounded=0;exitX=1.053;exitY=0.212;exitDx=0;exitDy=0;exitPerimeter=0;" edge="1" parent="1" source="Up-l4wQZ1LtPDwq_aXLA-9" target="Up-l4wQZ1LtPDwq_aXLA-11">
          <mxGeometry relative="1" as="geometry">
            <mxPoint x="548.2" y="478" as="sourcePoint" />
            <mxPoint x="560" y="400" as="targetPoint" />
          </mxGeometry>
        </mxCell>
        <mxCell id="Up-l4wQZ1LtPDwq_aXLA-14" value="" style="html=1;verticalAlign=bottom;endArrow=open;dashed=1;endSize=8;elbow=vertical;rounded=0;exitX=0;exitY=0;exitDx=120;exitDy=95;exitPerimeter=0;" edge="1" parent="1" source="Up-l4wQZ1LtPDwq_aXLA-9">
          <mxGeometry relative="1" as="geometry">
            <mxPoint x="154" y="420" as="sourcePoint" />
            <mxPoint x="510" y="460" as="targetPoint" />
          </mxGeometry>
        </mxCell>
        <mxCell id="Up-l4wQZ1LtPDwq_aXLA-15" value="" style="html=1;verticalAlign=bottom;endArrow=open;dashed=1;endSize=8;elbow=vertical;rounded=0;" edge="1" parent="1" source="Up-l4wQZ1LtPDwq_aXLA-9" target="Up-l4wQZ1LtPDwq_aXLA-10">
          <mxGeometry relative="1" as="geometry">
            <mxPoint x="330" y="324" as="sourcePoint" />
            <mxPoint x="405" y="450" as="targetPoint" />
          </mxGeometry>
        </mxCell>
        <mxCell id="Up-l4wQZ1LtPDwq_aXLA-16" value="" style="html=1;verticalAlign=bottom;endArrow=open;dashed=1;endSize=8;elbow=vertical;rounded=0;entryX=-0.027;entryY=0.421;entryDx=0;entryDy=0;entryPerimeter=0;" edge="1" parent="1" source="Up-l4wQZ1LtPDwq_aXLA-2" target="Up-l4wQZ1LtPDwq_aXLA-9">
          <mxGeometry relative="1" as="geometry">
            <mxPoint x="479.6" y="270" as="sourcePoint" />
            <mxPoint x="528.6" y="192" as="targetPoint" />
          </mxGeometry>
        </mxCell>
      </root>
    </mxGraphModel>
  </diagram>
</mxfile>
